<?xml version="1.0" encoding="UTF-8"?> <svg xmlns="http://www.w3.org/2000/svg" width="289" height="114" viewBox="0 0 289 114" fill="none"> <path d="M35.07 78.09C35.2567 77.3433 35.42 76.2467 35.56 74.8C35.7467 73.4 35.8867 71.7667 35.98 69.9C36.12 68.0333 36.2133 66.0267 36.26 63.88C36.3533 61.6867 36.4 59.4467 36.4 57.16C36.4 56.3667 36.3767 55.5967 36.33 54.85C36.33 54.0567 36.33 53.2633 36.33 52.47C34.5567 51.9567 32.97 51.3733 31.57 50.72C30.2167 50.02 29.0733 49.2033 28.14 48.27C27.4867 47.6167 26.9733 46.9167 26.6 46.17C26.2267 45.3767 26.04 44.6533 26.04 44C26.04 43.0667 26.3433 42.4133 26.95 42.04C27.5567 41.62 28.2567 41.5267 29.05 41.76C29.19 42.9733 29.8433 44.1867 31.01 45.4C32.1767 46.5667 33.88 47.57 36.12 48.41C35.7933 43.7433 35.2333 39.6833 34.44 36.23C33.6467 32.7767 32.6667 30.0467 31.5 28.04C31.7333 26.7333 32.4333 26.08 33.6 26.08C34.3467 26.08 34.9533 26.3833 35.42 26.99C35.9333 27.5967 36.47 28.6933 37.03 30.28C38.6167 34.8533 39.62 41.27 40.04 49.53C41.3 49.7633 42.6533 49.95 44.1 50.09C45.5467 50.23 47.0867 50.3 48.72 50.3C54.2733 50.3 59.29 49.6467 63.77 48.34C68.25 47.0333 72.0533 45.26 75.18 43.02C78.3533 40.78 80.78 38.1667 82.46 35.18C84.14 32.1933 84.98 29.0433 84.98 25.73C84.98 23.0233 84.1633 20.3867 82.53 17.82C80.8967 15.2533 78.4933 12.99 75.32 11.03C72.1467 9.02332 68.2267 7.43665 63.56 6.26998C58.94 5.05665 53.62 4.44999 47.6 4.44999C41.7667 4.44999 36.2367 5.03332 31.01 6.19999C25.7833 7.31998 21.1867 8.83665 17.22 10.75C13.3 12.6167 10.1733 14.7867 7.84 17.26C5.55333 19.6867 4.41 22.2067 4.41 24.82C4.41 26.08 4.76 27.2233 5.46 28.25C6.11333 29.23 7.02333 30.0933 8.19 30.84C9.40333 31.5867 10.8033 32.17 12.39 32.59C13.9767 32.9633 15.68 33.15 17.5 33.15C19.2733 33.15 20.7667 32.9633 21.98 32.59C22.6333 32.8233 22.96 33.22 22.96 33.78C22.96 34.62 22.2833 35.2733 20.93 35.74C19.6233 36.2067 17.99 36.44 16.03 36.44C13.8833 36.44 11.83 36.1833 9.87 35.67C7.95667 35.1567 6.27667 34.4333 4.83 33.5C3.33667 32.52 2.17 31.3533 1.33 30C0.443333 28.6 0 27.06 0 25.38C0 22.2533 1.26 19.2433 3.78 16.35C6.25333 13.41 9.66 10.7967 14 8.50998C18.3867 6.22332 23.52 4.40332 29.4 3.04998C35.28 1.64998 41.6033 0.949982 48.37 0.949982C55.2767 0.949982 61.2967 1.67332 66.43 3.11999C71.5633 4.56665 75.81 6.45665 79.17 8.78999C82.5767 11.0767 85.0967 13.6667 86.73 16.56C88.41 19.4533 89.25 22.37 89.25 25.31C89.25 29.3233 88.2467 33.08 86.24 36.58C84.2333 40.0333 81.41 43.0433 77.77 45.61C74.1767 48.13 69.8833 50.1367 64.89 51.63C59.8967 53.0767 54.4133 53.8 48.44 53.8C46.9467 53.8 45.5 53.7533 44.1 53.66C42.7467 53.5667 41.44 53.4267 40.18 53.24C40.2267 53.6133 40.25 53.9867 40.25 54.36C40.25 54.6867 40.25 55.0367 40.25 55.41C40.25 57.09 40.2267 58.8633 40.18 60.73C40.1333 62.55 40.0633 64.3467 39.97 66.12C39.8767 67.8933 39.76 69.5967 39.62 71.23C39.48 72.8167 39.34 74.1933 39.2 75.36C39.0133 76.6667 38.71 77.5767 38.29 78.09C37.87 78.65 37.3333 78.93 36.68 78.93C36.4 78.93 36.0967 78.86 35.77 78.72C35.49 78.58 35.2567 78.37 35.07 78.09Z" fill="white"></path> <path d="M100.636 75.22C99.5626 75.22 98.5826 74.9867 97.6959 74.52C96.8559 74.0533 96.1326 73.3067 95.5259 72.28C94.9193 71.3 94.4526 70.0167 94.1259 68.43C93.7526 66.7967 93.5659 64.8367 93.5659 62.55C93.5659 61.2433 93.6359 59.8433 93.7759 58.35C93.9159 56.8567 94.1259 55.3867 94.4059 53.94C94.6393 52.4467 94.9426 51 95.3159 49.6C95.6893 48.2 96.1326 46.9167 96.6459 45.75C97.0193 44.8633 97.4159 44.2333 97.8359 43.86C98.3026 43.4867 98.8159 43.3 99.3759 43.3C99.8893 43.3 100.333 43.4167 100.706 43.65C99.5393 46.2633 98.6993 49.11 98.1859 52.19C97.7193 55.27 97.4859 58.14 97.4859 60.8C97.4859 62.76 97.6026 64.37 97.8359 65.63C98.0693 66.89 98.3726 67.8933 98.7459 68.64C99.1659 69.34 99.6093 69.8533 100.076 70.18C100.543 70.46 101.009 70.6 101.476 70.6C103.063 70.6 104.789 69.1067 106.656 66.12C108.523 63.0867 110.366 58.3967 112.186 52.05C112.466 50.8367 113.073 50.23 114.006 50.23C114.473 50.23 114.939 50.3467 115.406 50.58C115.033 53.2867 115.196 56.1333 115.896 59.12C116.596 62.06 117.459 65.1867 118.486 68.5C119.513 71.8133 120.469 75.29 121.356 78.93C122.289 82.6167 122.756 86.49 122.756 90.55C122.756 94.1433 122.196 97.3633 121.076 100.21C120.003 103.103 118.463 105.553 116.456 107.56C114.496 109.613 112.139 111.177 109.386 112.25C106.633 113.37 103.623 113.93 100.356 113.93C97.8359 113.93 95.5026 113.533 93.3559 112.74C91.1626 111.947 89.2726 110.897 87.6859 109.59C86.0526 108.33 84.7926 106.883 83.9059 105.25C82.9726 103.663 82.5059 102.03 82.5059 100.35C82.5059 99.3233 82.7859 98.5767 83.3459 98.11C83.8593 97.6433 84.5126 97.5267 85.3059 97.76C85.3059 99.3 85.7259 100.793 86.5659 102.24C87.4059 103.733 88.5493 105.04 89.9959 106.16C91.3959 107.327 93.0293 108.237 94.8959 108.89C96.7626 109.59 98.7459 109.94 100.846 109.94C106.493 109.94 110.926 108.33 114.146 105.11C117.366 101.89 118.976 97.34 118.976 91.46C118.976 88.3333 118.696 85.3467 118.136 82.5C117.623 79.7 116.993 76.9933 116.246 74.38C115.546 71.8133 114.846 69.3167 114.146 66.89C113.446 64.4167 112.933 61.9667 112.606 59.54C111.159 64.5333 109.339 68.4067 107.146 71.16C104.999 73.8667 102.829 75.22 100.636 75.22Z" fill="white"></path> <path d="M128.588 58.28C129.288 56.9267 129.965 55.41 130.618 53.73C131.318 52.05 132.135 50.44 133.068 48.9C134.002 47.3133 135.098 45.8667 136.358 44.56C137.665 43.2533 139.275 42.2967 141.188 41.69C143.428 40.99 145.342 40.9667 146.928 41.62C148.562 42.2733 149.775 43.3 150.568 44.7C151.408 46.0533 151.828 47.5933 151.828 49.32C151.828 51.0467 151.338 52.61 150.358 54.01C149.938 54.6167 149.402 55.2 148.748 55.76C148.142 56.2733 147.418 56.6467 146.578 56.88C145.738 57.0667 144.782 57.0433 143.708 56.81C142.682 56.5767 141.538 56.0167 140.278 55.13C139.765 54.57 139.508 54.1033 139.508 53.73C139.508 53.3567 139.625 53.0767 139.858 52.89C140.092 52.6567 140.372 52.54 140.698 52.54C141.025 52.4933 141.305 52.54 141.538 52.68C142.145 53.24 142.752 53.6133 143.358 53.8C144.012 53.9867 144.618 54.0567 145.178 54.01C145.738 53.9167 146.228 53.7533 146.648 53.52C147.115 53.24 147.488 52.89 147.768 52.47C148.328 51.5833 148.608 50.6267 148.608 49.6C148.608 48.5733 148.328 47.6633 147.768 46.87C147.255 46.0767 146.485 45.4933 145.458 45.12C144.478 44.7467 143.288 44.77 141.888 45.19C140.908 45.5167 140.022 46.0067 139.228 46.66C138.435 47.2667 137.642 48.1067 136.848 49.18C136.102 50.2533 135.332 51.5833 134.538 53.17C133.792 54.7567 132.998 56.6233 132.158 58.77C134.678 58.8167 136.638 59.1433 138.038 59.75C139.485 60.3567 140.558 61.1033 141.258 61.99C141.958 62.8767 142.425 63.8333 142.658 64.86C142.892 65.8867 143.102 66.8433 143.288 67.73C143.522 68.57 143.802 69.2933 144.128 69.9C144.502 70.5067 145.178 70.8333 146.158 70.88C147.185 70.9267 148.165 70.74 149.098 70.32C150.078 69.9 151.058 69.0367 152.038 67.73C153.018 66.3767 154.045 64.4867 155.118 62.06C156.238 59.6333 157.452 56.4133 158.758 52.4C160.065 52.4 160.508 53.2633 160.088 54.99C159.108 58.8633 158.082 62.0833 157.008 64.65C155.982 67.17 154.908 69.2 153.788 70.74C152.715 72.2333 151.572 73.26 150.358 73.82C149.192 74.4267 147.978 74.73 146.718 74.73C144.805 74.6833 143.382 74.31 142.448 73.61C141.515 72.9567 140.815 72.14 140.348 71.16C139.882 70.18 139.532 69.1767 139.298 68.15C139.065 67.0767 138.692 66.1433 138.178 65.35C137.525 64.4167 136.592 63.6 135.378 62.9C134.212 62.1533 132.648 61.8967 130.688 62.13C130.362 63.2033 130.105 64.4633 129.918 65.91C129.732 67.31 129.638 68.57 129.638 69.69C129.638 70.7633 129.755 71.8833 129.988 73.05C129.475 73.4233 128.962 73.61 128.448 73.61C127.842 73.61 127.328 73.3767 126.908 72.91C126.535 72.4433 126.232 71.37 125.998 69.69C125.812 68.57 125.648 67.4967 125.508 66.47C125.368 65.3967 125.228 64.3 125.088 63.18C124.995 62.06 124.925 60.87 124.878 59.61C124.832 58.3033 124.808 56.8333 124.808 55.2C124.715 53.9867 124.692 52.75 124.738 51.49C124.785 50.23 124.878 49.25 125.018 48.55C125.158 47.6633 125.415 47.0333 125.788 46.66C126.208 46.2867 126.675 46.0533 127.188 45.96C128.215 45.82 128.892 46.0767 129.218 46.73C128.985 47.15 128.822 48.0833 128.728 49.53C128.635 50.93 128.588 52.5633 128.588 54.43C128.588 55.13 128.565 55.5733 128.518 55.76C128.518 55.9467 128.518 56.0867 128.518 56.18C128.518 56.2733 128.518 56.4367 128.518 56.67C128.518 56.9033 128.542 57.44 128.588 58.28Z" fill="white"></path> <path d="M164.458 58.28C165.158 56.9267 165.835 55.41 166.488 53.73C167.188 52.05 168.005 50.44 168.938 48.9C169.871 47.3133 170.968 45.8667 172.228 44.56C173.535 43.2533 175.145 42.2967 177.058 41.69C179.298 40.99 181.211 40.9667 182.798 41.62C184.431 42.2733 185.645 43.3 186.438 44.7C187.278 46.0533 187.698 47.5933 187.698 49.32C187.698 51.0467 187.208 52.61 186.228 54.01C185.808 54.6167 185.271 55.2 184.618 55.76C184.011 56.2733 183.288 56.6467 182.448 56.88C181.608 57.0667 180.651 57.0433 179.578 56.81C178.551 56.5767 177.408 56.0167 176.148 55.13C175.635 54.57 175.378 54.1033 175.378 53.73C175.378 53.3567 175.495 53.0767 175.728 52.89C175.961 52.6567 176.241 52.54 176.568 52.54C176.895 52.4933 177.175 52.54 177.408 52.68C178.015 53.24 178.621 53.6133 179.228 53.8C179.881 53.9867 180.488 54.0567 181.048 54.01C181.608 53.9167 182.098 53.7533 182.518 53.52C182.985 53.24 183.358 52.89 183.638 52.47C184.198 51.5833 184.478 50.6267 184.478 49.6C184.478 48.5733 184.198 47.6633 183.638 46.87C183.125 46.0767 182.355 45.4933 181.328 45.12C180.348 44.7467 179.158 44.77 177.758 45.19C176.778 45.5167 175.891 46.0067 175.098 46.66C174.305 47.2667 173.511 48.1067 172.718 49.18C171.971 50.2533 171.201 51.5833 170.408 53.17C169.661 54.7567 168.868 56.6233 168.028 58.77C170.548 58.8167 172.508 59.1433 173.908 59.75C175.355 60.3567 176.428 61.1033 177.128 61.99C177.828 62.8767 178.295 63.8333 178.528 64.86C178.761 65.8867 178.971 66.8433 179.158 67.73C179.391 68.57 179.671 69.2933 179.998 69.9C180.371 70.5067 181.048 70.8333 182.028 70.88C183.055 70.9267 184.035 70.74 184.968 70.32C185.948 69.9 186.928 69.0367 187.908 67.73C188.888 66.3767 189.915 64.4867 190.988 62.06C192.108 59.6333 193.321 56.4133 194.628 52.4C195.935 52.4 196.378 53.2633 195.958 54.99C194.978 58.8633 193.951 62.0833 192.878 64.65C191.851 67.17 190.778 69.2 189.658 70.74C188.585 72.2333 187.441 73.26 186.228 73.82C185.061 74.4267 183.848 74.73 182.588 74.73C180.675 74.6833 179.251 74.31 178.318 73.61C177.385 72.9567 176.685 72.14 176.218 71.16C175.751 70.18 175.401 69.1767 175.168 68.15C174.935 67.0767 174.561 66.1433 174.048 65.35C173.395 64.4167 172.461 63.6 171.248 62.9C170.081 62.1533 168.518 61.8967 166.558 62.13C166.231 63.2033 165.975 64.4633 165.788 65.91C165.601 67.31 165.508 68.57 165.508 69.69C165.508 70.7633 165.625 71.8833 165.858 73.05C165.345 73.4233 164.831 73.61 164.318 73.61C163.711 73.61 163.198 73.3767 162.778 72.91C162.405 72.4433 162.101 71.37 161.868 69.69C161.681 68.57 161.518 67.4967 161.378 66.47C161.238 65.3967 161.098 64.3 160.958 63.18C160.865 62.06 160.795 60.87 160.748 59.61C160.701 58.3033 160.678 56.8333 160.678 55.2C160.585 53.9867 160.561 52.75 160.608 51.49C160.655 50.23 160.748 49.25 160.888 48.55C161.028 47.6633 161.285 47.0333 161.658 46.66C162.078 46.2867 162.545 46.0533 163.058 45.96C164.085 45.82 164.761 46.0767 165.088 46.73C164.855 47.15 164.691 48.0833 164.598 49.53C164.505 50.93 164.458 52.5633 164.458 54.43C164.458 55.13 164.435 55.5733 164.388 55.76C164.388 55.9467 164.388 56.0867 164.388 56.18C164.388 56.2733 164.388 56.4367 164.388 56.67C164.388 56.9033 164.411 57.44 164.458 58.28Z" fill="white"></path> <path d="M225.597 54.99C225.084 57.0433 224.407 58.84 223.567 60.38C222.727 61.8733 221.794 63.1333 220.767 64.16C219.741 65.1867 218.644 65.98 217.477 66.54C216.311 67.1 215.121 67.4733 213.907 67.66C212.974 70.1333 211.621 72.0233 209.847 73.33C208.121 74.6833 206.207 75.36 204.107 75.36C201.354 75.36 199.091 74.24 197.317 72C195.591 69.7133 194.727 66.3533 194.727 61.92C194.727 59.9133 194.984 57.8833 195.497 55.83C196.011 53.73 196.781 51.8867 197.807 50.3C197.994 48.2 198.647 46.4967 199.767 45.19C200.887 43.8833 202.427 43.23 204.387 43.23C206.067 43.23 207.561 43.6733 208.867 44.56C210.221 45.4467 211.364 46.66 212.297 48.2C213.231 49.6933 213.931 51.4667 214.397 53.52C214.911 55.5733 215.167 57.7667 215.167 60.1C215.167 61.5 215.074 62.7367 214.887 63.81C215.821 63.6233 216.707 63.2967 217.547 62.83C218.434 62.3633 219.251 61.71 219.997 60.87C220.791 59.9833 221.537 58.8633 222.237 57.51C222.937 56.11 223.614 54.4067 224.267 52.4C225.574 52.4 226.017 53.2633 225.597 54.99ZM200.677 51C200.677 52.4933 201.004 53.9867 201.657 55.48C202.311 56.9267 203.151 58.2567 204.177 59.47C205.204 60.6367 206.371 61.64 207.677 62.48C208.984 63.2733 210.337 63.7633 211.737 63.95C211.924 63.1567 212.017 62.1533 212.017 60.94C212.017 58.9333 211.784 57.09 211.317 55.41C210.897 53.6833 210.314 52.2367 209.567 51.07C208.821 49.8567 207.957 48.9233 206.977 48.27C205.997 47.57 204.971 47.22 203.897 47.22C202.731 47.22 201.867 47.6167 201.307 48.41C201.634 48.55 201.891 48.83 202.077 49.25C201.611 49.7167 201.144 50.3 200.677 51ZM205.017 71.09C206.091 71.09 207.094 70.81 208.027 70.25C208.961 69.6433 209.754 68.78 210.407 67.66C209.101 67.4267 207.817 66.9833 206.557 66.33C205.344 65.63 204.201 64.7667 203.127 63.74C202.101 62.7133 201.191 61.57 200.397 60.31C199.604 59.0033 198.974 57.6267 198.507 56.18C198.321 56.9267 198.181 57.6733 198.087 58.42C198.041 59.1667 198.017 59.9367 198.017 60.73C198.017 64.09 198.694 66.6567 200.047 68.43C201.401 70.2033 203.057 71.09 205.017 71.09Z" fill="white"></path> <path d="M229.208 55.34C229.068 55.5267 228.881 55.83 228.648 56.25C228.415 56.6233 228.181 57.0667 227.948 57.58C227.715 58.0933 227.481 58.63 227.248 59.19C227.061 59.7033 226.898 60.17 226.758 60.59C226.385 62.0833 226.175 63.6933 226.128 65.42C226.081 67.1 226.431 68.5467 227.178 69.76C227.925 70.2267 228.648 70.18 229.348 69.62C230.095 69.0133 230.795 68.15 231.448 67.03C232.101 65.91 232.731 64.65 233.338 63.25C233.991 61.85 234.598 60.5667 235.158 59.4C235.438 58.7933 235.811 58 236.278 57.02C236.745 56.04 237.235 55.0133 237.748 53.94C238.308 52.82 238.891 51.7 239.498 50.58C240.105 49.46 240.688 48.4567 241.248 47.57C241.855 46.6367 242.415 45.89 242.928 45.33C243.488 44.77 243.978 44.49 244.398 44.49C245.005 44.49 245.495 44.6767 245.868 45.05C245.775 45.2367 245.705 45.4 245.658 45.54C245.658 45.68 245.611 45.8433 245.518 46.03L245.868 45.89C245.775 45.9833 245.681 46.1 245.588 46.24C245.541 46.38 245.471 46.4967 245.378 46.59C244.725 48.83 244.258 51.2333 243.978 53.8C243.745 56.32 243.628 58.6533 243.628 60.8C243.628 63.7867 243.955 65.9567 244.608 67.31C245.308 68.6633 246.195 69.34 247.268 69.34C247.828 69.34 248.388 69.0833 248.948 68.57C249.555 68.0567 250.208 67.1467 250.908 65.84C251.608 64.5333 252.378 62.76 253.218 60.52C254.058 58.28 255.038 55.4333 256.158 51.98C257.465 51.98 257.908 52.8433 257.488 54.57C256.555 58.21 255.621 61.2667 254.688 63.74C253.801 66.2133 252.891 68.1967 251.958 69.69C251.025 71.1833 250.068 72.2567 249.088 72.91C248.108 73.5633 247.081 73.89 246.008 73.89C244.141 73.89 242.578 72.9567 241.318 71.09C240.105 69.2233 239.498 66.0967 239.498 61.71C239.498 61.0567 239.521 60.3333 239.568 59.54C239.615 58.7 239.685 57.8133 239.778 56.88C239.311 57.7667 238.868 58.6533 238.448 59.54C238.028 60.38 237.631 61.1967 237.258 61.99C236.698 63.2033 236.068 64.51 235.368 65.91C234.715 67.2633 233.991 68.5233 233.198 69.69C232.451 70.8567 231.611 71.8367 230.678 72.63C229.791 73.4233 228.788 73.82 227.668 73.82C226.361 73.82 225.335 73.4 224.588 72.56C223.795 71.7667 223.235 70.7633 222.908 69.55C222.535 68.29 222.348 66.9133 222.348 65.42C222.348 63.88 222.488 62.41 222.768 61.01C222.908 60.31 223.118 59.5867 223.398 58.84C223.631 58.0933 223.935 57.3933 224.308 56.74C224.681 56.04 225.078 55.4333 225.498 54.92C225.871 54.36 226.268 53.94 226.688 53.66C227.061 53.3333 227.458 53.17 227.878 53.17C228.345 53.17 228.718 53.2633 228.998 53.45C229.278 53.6367 229.465 53.9167 229.558 54.29C229.651 54.6167 229.535 54.9667 229.208 55.34Z" fill="white"></path> <path d="M276.469 53.24C276.469 54.6867 276.305 55.7133 275.979 56.32C275.699 56.88 275.302 57.2067 274.789 57.3C274.789 59.1667 274.439 61.1733 273.739 63.32C274.205 67.4733 275.465 69.55 277.519 69.55C278.219 69.55 278.919 69.2933 279.619 68.78C280.319 68.22 281.042 67.2867 281.789 65.98C282.536 64.6733 283.352 62.9233 284.239 60.73C285.125 58.5367 286.105 55.76 287.179 52.4C288.485 52.4 288.929 53.2633 288.509 54.99C287.576 58.7233 286.642 61.8267 285.709 64.3C284.822 66.7267 283.912 68.6867 282.979 70.18C282.045 71.6267 281.066 72.63 280.039 73.19C279.059 73.7967 278.032 74.1 276.959 74.1C274.159 74.1 272.199 72.3967 271.079 68.99C270.005 70.7633 268.722 72.2333 267.229 73.4C265.735 74.6133 264.126 75.22 262.399 75.22C260.252 75.22 258.455 74.1933 257.009 72.14C255.562 70.0867 254.839 67.0533 254.839 63.04C254.839 60.52 255.189 58.0467 255.889 55.62C256.589 53.1933 257.545 51.0467 258.759 49.18C259.972 47.2667 261.396 45.75 263.029 44.63C264.662 43.4633 266.412 42.88 268.279 42.88C269.679 42.88 270.892 43.16 271.919 43.72C272.945 44.2333 273.786 44.9567 274.439 45.89C275.139 46.8233 275.652 47.92 275.979 49.18C276.305 50.44 276.469 51.7933 276.469 53.24ZM273.389 53.1C273.202 51.0933 272.619 49.5767 271.639 48.55C270.659 47.4767 269.376 46.94 267.789 46.94C266.389 46.94 265.106 47.36 263.939 48.2C262.819 49.04 261.839 50.1367 260.999 51.49C260.206 52.8433 259.575 54.4067 259.109 56.18C258.642 57.9533 258.409 59.7733 258.409 61.64C258.409 64.58 258.876 66.8433 259.809 68.43C260.789 70.0167 261.979 70.81 263.379 70.81C264.592 70.81 265.805 70.2267 267.019 69.06C268.279 67.8933 269.352 66.4233 270.239 64.65C270.192 64.23 270.146 63.7867 270.099 63.32C270.099 62.8533 270.099 62.3633 270.099 61.85C270.099 59.0033 270.402 56.7633 271.009 55.13C271.662 53.45 272.455 52.7733 273.389 53.1Z" fill="white"></path> </svg> 